<?xml version="1.0" standalone="no"?>
<!DOCTYPE svg PUBLIC "-//W3C//DTD SVG 20010904//EN"
 "http://www.w3.org/TR/2001/REC-SVG-20010904/DTD/svg10.dtd">
<svg version="1.0" xmlns="http://www.w3.org/2000/svg"
 width="534.000000pt" height="534.000000pt" viewBox="0 0 534.000000 534.000000"
 preserveAspectRatio="xMidYMid meet">
<metadata>
Created by potrace 1.14, written by Peter Selinger 2001-2017
</metadata>
<g transform="translate(0.000000,534.000000) scale(0.100000,-0.100000)"
fill="#000000" stroke="none">
<path d="M2710 5269 c-183 -23 -363 -100 -475 -203 -46 -43 -30 -37 34 12 63
47 127 78 228 108 73 22 115 27 243 31 369 12 559 -91 676 -367 31 -76 50
-138 143 -487 102 -377 177 -528 434 -877 236 -320 340 -500 417 -721 144
-420 149 -972 10 -1387 -254 -762 -968 -1218 -1855 -1185 -456 17 -862 165
-1196 435 -164 132 -338 340 -436 520 -24 42 -43 73 -43 67 0 -5 19 -44 41
-85 140 -258 400 -550 620 -696 224 -149 522 -251 879 -301 157 -21 584 -24
740 -5 251 31 509 101 666 180 108 54 267 174 393 296 310 302 479 630 537
1046 12 88 15 163 11 320 -6 229 -25 370 -82 585 -104 396 -210 608 -548 1092
-267 383 -287 422 -352 689 -80 329 -119 440 -199 564 -25 39 -65 91 -88 116
-174 189 -497 291 -798 253z"/>
<path d="M2395 3274 c-446 -65 -768 -282 -950 -644 -84 -168 -121 -306 -135
-508 -9 -130 2 -303 25 -395 46 -180 142 -347 280 -482 202 -198 487 -296 942
-325 491 -31 837 72 1064 317 141 152 238 353 276 568 21 124 13 423 -15 545
-101 431 -367 731 -762 859 -153 50 -244 63 -475 66 -121 2 -233 1 -250 -1z
m-202 -399 c38 -8 107 -34 155 -60 323 -168 330 -169 574 -60 68 30 152 62
188 71 141 36 266 -5 396 -128 158 -151 241 -350 247 -597 1 -55 -1 -102 -5
-106 -4 -4 -33 15 -65 42 -159 135 -393 297 -454 313 -61 17 -130 -2 -179 -49
-86 -82 -72 -225 28 -286 65 -39 188 -132 246 -186 68 -62 276 -296 276 -311
0 -5 -53 -62 -117 -126 -164 -163 -279 -225 -504 -273 -140 -30 -447 -33 -614
-5 -262 43 -456 135 -605 286 -62 63 -170 208 -170 228 0 5 49 56 109 115 118
116 224 190 375 263 107 52 137 82 156 152 35 133 -70 253 -209 240 -30 -3
-98 -30 -192 -75 -151 -73 -202 -104 -296 -180 l-55 -45 7 69 c9 87 38 213 65
283 92 235 334 428 550 438 14 1 56 -5 93 -13z"/>
<path d="M2524 2160 c-22 -5 -56 -15 -75 -23 -44 -19 -118 -74 -126 -93 -3 -9
22 -51 65 -107 96 -126 117 -164 103 -181 -16 -19 -89 -36 -153 -36 -38 0 -71
8 -116 30 -80 38 -128 40 -143 6 -17 -36 -3 -76 41 -117 90 -86 279 -105 412
-42 l67 31 79 -40 c60 -31 94 -41 144 -45 92 -8 188 22 251 77 74 66 85 150
22 166 -25 6 -39 0 -126 -61 -59 -42 -142 -42 -211 -2 -26 15 -50 32 -53 38
-9 13 9 38 104 144 44 50 81 96 81 102 0 23 -73 94 -121 118 -26 13 -75 29
-110 35 -72 11 -77 11 -135 0z"/>
</g>
</svg>
